<svg version="1.1" id="Layer_1" xmlns="http://www.w3.org/2000/svg" xmlns:xlink="http://www.w3.org/1999/xlink" x="0px" y="0px"
	 width="100%" viewBox="0 0 1024 1024" enable-background="new 0 0 1024 1024" xml:space="preserve">
<path fill="none" opacity="1.000000" stroke="#000000" stroke-linecap="round" stroke-linejoin="round" stroke-width="5.000000"
	d="
M748.500000,757.500000 
	C736.785828,761.121887 727.488708,768.990112 717.570129,775.605164 
	C687.340576,795.765930 657.254272,816.145874 626.473389,835.457581 
	C595.337585,854.992004 563.449890,873.205078 529.483032,887.459534 
	C509.839478,895.703003 489.962067,903.420654 468.494568,905.442383 
	C457.327148,906.494080 446.018799,907.172119 435.020996,904.416138 
	C419.013336,900.404846 409.572144,889.452698 405.030304,873.991089 
	C402.528229,865.473572 404.977264,858.094604 409.297241,850.386353 
	C416.953583,836.724976 429.765930,828.764587 441.036133,819.041870 
	C441.418365,818.712158 442.333344,819.000000 443.000000,819.000000 
"/>
<path fill="none" opacity="1.000000" stroke="#000000" stroke-linecap="round" stroke-linejoin="round" stroke-width="5.000000"
	d="
M495.500000,499.000000 
	C495.906006,496.435913 497.871918,495.649841 499.998352,494.994659 
	C528.851807,486.104370 547.885437,467.106903 558.581848,439.031189 
	C565.982361,419.606659 568.684204,399.568512 567.884644,379.004486 
	C567.611328,371.976227 566.258423,364.950836 564.938049,358.011780 
	C563.056519,348.122925 561.517151,338.136322 558.472412,328.508728 
	C555.304138,318.490265 550.481384,309.465912 544.201965,300.852753 
	C535.512939,288.934479 523.488159,284.498352 510.001465,281.992188 
	C492.316559,278.705902 474.513153,277.057312 456.500641,276.917694 
	C430.938446,276.719513 405.486237,278.584595 379.996124,279.926178 
	C365.851105,280.670715 351.667053,280.863403 337.499786,280.892212 
	C332.607147,280.902161 327.648224,282.602783 322.650543,280.207520 
	C321.216187,279.520081 318.626556,281.669830 316.492798,281.943787 
	C305.174805,283.396851 293.762024,284.237000 282.517181,286.103516 
	C266.746796,288.721191 251.133118,291.921875 236.437119,298.866943 
	C225.797455,303.895111 217.879715,311.306702 211.425919,320.950409 
	C202.914810,333.668396 197.596527,347.660034 195.183304,362.529755 
	C192.939407,376.356171 192.232712,390.369049 192.816498,404.507568 
	C193.502487,421.121246 196.603333,437.070007 202.541000,452.484222 
	C209.618423,470.857239 220.109024,486.670685 237.500687,496.998840 
	C249.057419,503.861877 261.991638,505.412231 274.988281,507.090698 
	C287.148285,508.661102 299.347717,507.873566 311.508026,508.211945 
	C317.726440,508.384979 323.841583,508.959137 330.002869,509.465057 
	C334.565735,509.839722 339.001770,508.302460 343.463867,507.722168 
	C351.188019,506.717560 358.860657,507.672577 366.493652,506.934357 
	C374.324982,506.177032 382.268738,506.787201 389.966949,505.753723 
	C398.155884,504.654388 406.357452,504.976868 414.524933,504.301758 
	C424.430176,503.483002 434.537994,503.437897 444.480194,503.024139 
	C454.235596,502.618225 464.202759,501.409332 474.035004,500.314362 
	C482.019257,499.425262 490.128693,498.281494 498.581696,500.125580 
	C506.024445,501.749237 514.238831,500.773102 521.982361,499.851501 
	C532.417725,498.609558 542.848206,497.098724 553.018982,494.063507 
	C572.541016,488.237671 590.047119,479.012421 604.474976,464.475189 
	C615.687439,453.177704 623.497070,439.894409 628.107300,424.532196 
	C632.302612,410.552490 633.887085,396.472351 632.500000,382.000000 
"/>
<path fill="none" opacity="1.000000" stroke="#000000" stroke-linecap="round" stroke-linejoin="round" stroke-width="5.000000"
	d="
M869.500000,858.500000 
	C852.036804,838.595032 831.734619,822.005493 810.041443,806.940369 
	C794.128113,795.889099 778.851990,783.987793 763.864014,771.665405 
	C753.863037,763.442993 746.728210,752.786499 737.502930,743.996948 
	C735.342773,741.938843 733.286865,739.854370 730.530457,738.440613 
	C724.915710,735.560486 719.655518,737.412537 715.061646,740.105164 
	C690.081055,754.746704 666.271912,771.249634 642.106262,787.161316 
	C622.316650,800.191711 602.651062,813.407959 581.947815,824.906006 
	C554.833374,839.964783 526.964233,853.512512 497.501404,863.504089 
	C485.718384,867.500000 473.732666,870.957886 461.465790,872.768127 
	C455.313232,873.676086 448.898193,875.168701 442.492462,873.529419 
	C439.997040,872.890930 438.651428,872.010742 437.800323,869.057556 
	C436.183777,863.448242 437.958252,858.336060 438.436371,852.994324 
	C439.019257,846.482239 441.378174,840.158447 440.500000,833.500000 
"/>
<path fill="none" opacity="1.000000" stroke="#000000" stroke-linecap="round" stroke-linejoin="round" stroke-width="5.000000"
	d="
M654.000000,555.500000 
	C650.353210,560.027893 650.447815,565.795532 649.103455,571.026611 
	C646.250549,582.127380 643.630920,593.287292 639.475159,603.990356 
	C634.422913,617.002075 625.042114,626.869629 614.939148,635.932129 
	C594.965027,653.849060 572.433594,668.213562 549.529724,682.049133 
	C533.925110,691.475403 517.936707,700.104614 501.542847,708.087952 
	C481.256897,717.966675 460.230865,723.616577 437.496460,722.577332 
	C426.263763,722.063843 415.440796,720.028748 405.010101,715.973999 
	C390.829742,710.461670 383.152496,698.865845 378.109375,685.458862 
	C372.601196,670.815491 366.498322,656.420593 360.379852,642.051147 
	C349.159912,615.700928 340.169403,588.582214 330.913666,561.529541 
	C325.384369,545.368469 319.057526,529.477844 312.908844,513.535156 
	C312.310150,511.982697 312.026184,510.568268 312.000000,509.000000 
"/>
<path fill="none" opacity="1.000000" stroke="#000000" stroke-linecap="round" stroke-linejoin="round" stroke-width="5.000000"
	d="
M666.500000,380.000000 
	C667.021423,389.678528 666.803711,399.305206 666.308044,409.015717 
	C665.752258,419.904388 662.317444,430.008148 660.274292,440.455872 
	C659.289978,445.489258 655.459839,449.832458 652.873718,454.428955 
	C637.779663,481.257111 614.085266,496.810303 584.999878,504.999481 
	C571.903809,508.686737 558.555359,510.798401 545.008606,512.090027 
	C533.012329,513.233826 521.018311,513.666077 509.000641,513.462769 
	C490.331421,513.146973 471.731506,511.980988 453.500519,507.497925 
	C450.906677,506.860077 448.217987,506.397369 446.500000,504.000000 
"/>
<path fill="none" opacity="1.000000" stroke="#000000" stroke-linecap="round" stroke-linejoin="round" stroke-width="5.000000"
	d="
M681.500000,562.500000 
	C679.079285,574.597534 676.569519,586.644653 675.385742,598.989014 
	C673.260620,621.148743 670.901123,643.225281 673.941101,665.508057 
	C675.996765,680.576538 682.330017,694.098206 689.757385,706.850098 
	C696.591980,718.584229 704.194397,730.170593 715.000000,739.000000 
"/>
<path fill="none" opacity="1.000000" stroke="#000000" stroke-linecap="round" stroke-linejoin="round" stroke-width="5.000000"
	d="
M632.500000,308.000000 
	C628.562500,300.381744 621.725830,295.508331 614.913635,291.134521 
	C595.672607,278.780792 574.348877,271.481720 552.002930,266.985474 
	C532.852356,263.132202 513.472900,261.514618 494.005157,260.409119 
	C485.991455,259.954041 477.999298,260.077667 469.999847,260.056152 
	C465.671600,260.044525 461.372498,262.202576 456.685181,260.117889 
	C457.745148,255.823975 460.456635,252.314896 462.508606,248.504623 
	C470.883759,232.953003 482.345123,219.386536 491.064789,204.036804 
	C495.932526,195.467743 500.564697,186.792130 505.021454,178.010895 
	C506.032318,176.019211 506.381256,174.087326 505.500000,172.000000 
"/>
<path fill="none" opacity="1.000000" stroke="#000000" stroke-linecap="round" stroke-linejoin="round" stroke-width="5.000000"
	d="
M462.500000,146.000000 
	C450.081787,141.981583 438.386139,145.963608 426.480896,148.923141 
	C407.194366,153.717606 389.932831,162.891068 373.609253,173.665543 
	C360.230286,182.496384 351.320862,195.598831 344.525085,210.011826 
	C338.736877,222.287857 333.136871,234.653137 327.527893,247.012665 
	C326.539215,249.191193 325.986816,251.545731 326.500000,254.000000 
"/>
<path fill="none" opacity="1.000000" stroke="#000000" stroke-linecap="round" stroke-linejoin="round" stroke-width="5.000000"
	d="
M733.500000,373.500000 
	C734.973572,378.783234 732.833557,383.833618 732.481323,388.998718 
	C732.060425,395.170776 731.607910,401.344635 730.964844,407.496338 
	C730.475098,412.181488 729.837036,416.866577 728.935608,421.487427 
	C728.402710,424.218719 728.338257,426.516174 729.941895,429.036957 
	C735.444641,437.687042 737.999146,447.260681 737.991516,457.500000 
	C737.983093,468.841827 738.308105,480.193359 737.005798,491.500671 
	C735.366882,505.730255 729.969604,518.129456 721.176270,529.634705 
	C710.593872,543.480896 697.791016,554.083374 681.934021,560.845337 
	C676.750916,563.055603 670.709045,563.039612 665.009338,562.414612 
	C661.030823,561.978394 658.665466,558.629883 656.000000,556.000000 
"/>
<path fill="none" opacity="1.000000" stroke="#000000" stroke-linecap="round" stroke-linejoin="round" stroke-width="5.000000"
	d="
M517.500000,145.500000 
	C515.833313,145.666656 514.142639,146.102203 512.503967,145.955597 
	C503.085663,145.113022 493.711487,146.399933 484.529236,147.705612 
	C463.877014,150.642303 446.011688,159.458588 431.419556,174.924103 
	C415.430237,191.870453 403.672638,211.634079 392.038910,231.522766 
	C384.994385,243.565887 378.185974,255.754318 371.593018,268.049866 
	C369.702759,271.575134 367.660736,275.258820 367.500000,279.500000 
"/>
<path fill="none" opacity="1.000000" stroke="#000000" stroke-linecap="round" stroke-linejoin="round" stroke-width="5.000000"
	d="
M699.500000,534.500000 
	C698.697449,531.814758 701.330566,531.351318 702.562927,530.603760 
	C711.870911,524.957275 719.606689,517.646362 724.349548,507.926575 
	C728.341248,499.746246 729.775146,490.624451 729.943542,481.498962 
	C730.159058,469.815918 730.298218,458.111877 728.503723,446.499420 
	C727.785400,441.850677 725.460022,437.961090 722.448975,434.544983 
	C720.216492,432.012146 716.413086,432.452728 712.515503,435.519684 
	C704.226013,442.042511 697.276062,449.730896 693.033203,459.514374 
	C689.910645,466.714325 686.643738,473.832184 682.454651,480.471375 
	C681.099731,482.618683 680.773743,484.513794 681.425476,487.019379 
	C683.045959,493.250183 681.318054,498.524078 676.554199,503.056976 
	C672.695801,506.728271 669.693665,511.089203 668.469360,516.493042 
	C667.360291,521.388306 667.531250,525.711792 672.500000,528.500000 
"/>
<path fill="none" opacity="1.000000" stroke="#000000" stroke-linecap="round" stroke-linejoin="round" stroke-width="5.000000"
	d="
M753.500000,313.000000 
	C751.580505,313.886993 751.051697,315.948303 750.620605,317.532806 
	C749.453918,321.821350 748.008484,325.573120 744.952759,329.172150 
	C741.569580,333.157013 743.312012,339.008484 742.533813,344.005280 
	C741.425415,351.122498 742.583862,358.437347 740.550232,365.514435 
	C739.188110,370.254486 737.571228,372.009979 732.498230,372.481140 
	C723.663635,373.301666 714.861084,374.395813 706.010254,375.124786 
	C694.009827,376.113190 682.035034,377.336212 670.014771,378.204712 
	C660.848328,378.867004 651.635315,378.989502 642.503967,380.034729 
	C627.877258,381.708893 613.151794,381.777008 598.498901,382.986359 
	C593.892456,383.366547 590.592590,381.772644 587.888916,377.571472 
	C581.343994,367.401245 579.012024,355.838043 576.062622,344.483734 
	C573.563232,334.861725 573.314514,325.423889 577.760315,315.888245 
	C579.712524,311.701111 582.426025,310.253296 586.004333,310.102356 
	C598.828003,309.561493 611.639954,308.789032 624.500793,308.925873 
	C648.664734,309.183014 672.836121,308.778839 696.998840,309.088898 
	C710.005249,309.255768 723.006653,310.230194 735.995850,311.064667 
	C739.752869,311.306000 742.287048,313.527374 743.020996,317.496124 
	C743.645813,320.875000 743.639526,324.423462 745.500000,327.500000 
"/>
<path fill="none" opacity="1.000000" stroke="#000000" stroke-linecap="round" stroke-linejoin="round" stroke-width="5.000000"
	d="
M705.000000,785.500000 
	C712.929382,794.563354 722.412659,801.863281 732.022827,808.969116 
	C750.578735,822.689636 770.575684,834.380066 788.506592,848.991882 
	C796.133728,855.207092 803.833374,861.333313 811.500000,867.500000 
"/>
<path fill="none" opacity="1.000000" stroke="#000000" stroke-linecap="round" stroke-linejoin="round" stroke-width="5.000000"
	d="
M538.750000,125.000000 
	C536.560486,129.287445 533.853943,132.686523 529.809448,135.890610 
	C525.501831,139.303116 522.884094,145.299408 519.897705,150.440582 
	C515.981323,157.182755 512.552551,165.017746 506.745148,169.682739 
	C494.805359,179.273972 488.149475,192.419662 480.162903,204.606750 
	C469.205719,221.326843 459.997467,239.131149 451.009125,257.004578 
	C447.959229,263.069275 444.160797,268.794617 442.500000,275.500000 
"/>
<path fill="none" opacity="1.000000" stroke="#000000" stroke-linecap="round" stroke-linejoin="round" stroke-width="5.000000"
	d="
M479.500000,609.500000 
	C471.893799,605.899719 464.439270,602.482483 455.449585,604.804871 
	C451.583984,605.803467 447.132111,604.948242 443.007080,604.442139 
	C434.049652,603.343079 425.298828,604.589111 416.486664,605.911072 
	C412.900696,606.449036 409.160065,606.141724 405.501312,605.971741 
	C396.702759,605.562927 388.058868,606.646606 379.513031,608.558167 
	C377.591003,608.988220 375.833344,609.326477 374.000000,608.500000 
"/>
<path fill="none" opacity="1.000000" stroke="#000000" stroke-linecap="round" stroke-linejoin="round" stroke-width="5.000000"
	d="
M680.500000,517.500000 
	C688.010620,512.870422 697.287476,514.647217 705.035706,510.567871 
	C714.572571,505.546844 716.989319,497.656464 712.117065,487.941315 
	C709.906311,483.533173 707.395142,479.384552 704.433289,475.551544 
	C700.822632,470.878876 696.784851,469.660461 691.608154,472.218842 
	C689.766052,473.129211 689.166687,471.904175 688.000000,472.000000 
"/>
<path fill="none" opacity="1.000000" stroke="#000000" stroke-linecap="round" stroke-linejoin="round" stroke-width="4.000000"
	d="
M458.500000,603.000000 
	C455.603088,598.775635 450.335480,598.653748 446.451355,596.073242 
	C442.052032,593.150391 437.102203,591.089966 432.404877,588.685852 
	C427.448975,586.149536 421.796387,585.500977 416.993927,589.993530 
	C413.363922,593.389221 409.020599,593.403076 404.499054,592.504761 
	C400.134369,591.637573 395.756744,587.981934 391.600281,589.737427 
	C385.459503,592.330933 380.616302,597.121765 376.904388,602.938965 
	C375.734985,604.771606 374.635132,606.647339 373.460968,608.474915 
	C372.599792,609.815369 371.396790,610.960266 369.500000,610.500000 
"/>
<path fill="none" opacity="1.000000" stroke="#000000" stroke-linecap="round" stroke-linejoin="round" stroke-width="4.000000"
	d="
M651.000000,139.500000 
	C650.809387,142.441666 652.878723,143.838547 655.013428,144.974792 
	C674.163208,155.167786 690.809326,168.696472 706.485168,183.515656 
	C709.060120,185.949875 711.931580,187.910614 709.275879,192.654434 
	C707.962891,194.999802 711.619751,197.781555 713.533264,199.970947 
	C722.489441,210.218094 730.527893,221.138901 738.027466,232.481842 
	C740.295288,235.911942 742.147095,239.461517 743.001953,243.499588 
	C744.180908,249.068726 748.552979,252.117783 752.500000,255.500000 
"/>
<path fill="none" opacity="1.000000" stroke="#000000" stroke-linecap="round" stroke-linejoin="round" stroke-width="5.000000"
	d="
M438.500000,756.000000 
	C435.725250,760.166687 438.140625,764.481201 438.701691,768.471619 
	C440.245575,779.451782 440.986359,790.483582 442.149689,801.484192 
	C443.629425,815.476746 445.047211,829.474060 445.872406,843.507507 
	C446.244019,849.826599 445.371521,856.227966 444.050690,862.510681 
	C443.366058,865.766968 441.585510,867.647827 438.500000,868.500000 
"/>
<path fill="none" opacity="1.000000" stroke="#000000" stroke-linecap="round" stroke-linejoin="round" stroke-width="4.000000"
	d="
M745.000000,249.500000 
	C742.922974,257.252930 745.275757,264.405243 748.003296,271.498718 
	C751.749573,281.241425 755.393311,290.991516 756.562134,301.493073 
	C756.959473,305.063324 757.865601,308.521515 755.000000,311.500000 
"/>
<path fill="none" opacity="1.000000" stroke="#000000" stroke-linecap="round" stroke-linejoin="round" stroke-width="5.000000"
	d="
M598.500000,123.000000 
	C601.838379,125.897301 606.116882,125.699661 610.005615,125.877525 
	C619.448059,126.309418 628.470337,128.516434 637.518372,130.931213 
	C640.986755,131.856873 642.831787,134.756744 645.360596,136.683014 
	C649.577332,139.895065 654.949829,137.856735 659.115356,140.838852 
	C660.313232,141.696411 660.290833,142.700653 661.000000,143.500000 
"/>
<path fill="none" opacity="1.000000" stroke="#000000" stroke-linecap="round" stroke-linejoin="round" stroke-width="5.000000"
	d="
M370.000000,269.500000 
	C365.885437,266.917419 361.928986,269.841675 358.024414,270.239563 
	C349.113770,271.147614 340.336456,273.350159 331.497620,274.987152 
	C329.505188,275.356140 327.636078,276.483215 325.500000,276.000000 
"/>
<path fill="none" opacity="1.000000" stroke="#000000" stroke-linecap="round" stroke-linejoin="round" stroke-width="5.000000"
	d="
M437.500000,626.500000 
	C431.686554,628.626160 425.516205,629.174316 419.483368,629.851990 
	C411.165802,630.786316 402.726471,630.781311 394.500000,628.500000 
"/>
<path fill="none" opacity="1.000000" stroke="#000000" stroke-linecap="round" stroke-linejoin="round" stroke-width="5.000000"
	d="
M370.000000,508.000000 
	C370.166779,511.583374 368.255463,514.645874 367.445251,517.986694 
	C366.761719,520.805237 365.920441,523.522827 365.958221,526.500549 
	C366.065765,534.969055 369.275543,540.526978 377.052612,542.821716 
	C381.102631,544.016846 384.463959,546.518066 388.500000,547.500000 
"/>
<path fill="none" opacity="1.000000" stroke="#000000" stroke-linecap="round" stroke-linejoin="round" stroke-width="5.000000"
	d="
M457.500000,516.500000 
	C460.765411,529.469666 453.427124,540.168579 439.002625,543.511292 
	C437.357788,543.892456 434.912323,543.453247 435.500000,546.500000 
"/>
<path fill="none" opacity="1.000000" stroke="#000000" stroke-linecap="round" stroke-linejoin="round" stroke-width="4.000000"
	d="
M578.750000,312.500000 
	C567.753540,305.870789 556.609863,299.503265 544.974915,294.053619 
	C543.342407,293.289032 541.478821,292.066498 539.500000,293.500000 
"/>
<path fill="none" opacity="1.000000" stroke="#000000" stroke-linecap="round" stroke-linejoin="round" stroke-width="5.000000"
	d="
M685.000000,444.500000 
	C684.761169,442.673218 685.712463,440.601349 684.464539,439.028107 
	C680.194824,433.645233 676.593628,434.349304 674.090149,441.531433 
	C671.670044,448.474579 669.230957,455.503784 669.024841,463.000671 
	C668.996704,464.023224 668.539429,464.689087 668.071228,465.539215 
	C666.356079,468.653259 665.939392,472.027283 667.000000,475.500000 
"/>
<path fill="none" opacity="1.000000" stroke="#000000" stroke-linecap="round" stroke-linejoin="round" stroke-width="4.000000"
	d="
M333.500000,510.000000 
	C337.514709,514.300842 343.086212,513.302185 348.016083,513.857300 
	C354.617798,514.600647 361.333344,514.333313 368.000000,514.500000 
"/>
<path fill="none" opacity="1.000000" stroke="#000000" stroke-linecap="round" stroke-linejoin="round" stroke-width="5.000000"
	d="
M429.500000,723.500000 
	C431.387115,733.768066 434.278015,743.904968 438.350861,753.348694 
	C441.239685,760.046936 445.822479,766.248718 448.909821,773.041016 
	C450.576477,776.707642 450.907166,780.981567 454.000000,784.000000 
"/>
<path fill="none" opacity="1.000000" stroke="#000000" stroke-linecap="round" stroke-linejoin="round" stroke-width="5.000000"
	d="
M437.500000,535.500000 
	C434.195923,535.761292 431.459503,534.944092 428.369781,533.235474 
	C424.075653,530.860901 419.201385,532.846863 415.037079,535.069458 
	C412.125885,536.623291 409.243988,538.460999 407.500000,541.500000 
"/>
<path fill="none" opacity="1.000000" stroke="#000000" stroke-linecap="round" stroke-linejoin="round" stroke-width="4.000000"
	d="
M594.500000,121.000000 
	C589.942017,116.674187 584.820435,120.009178 580.004089,120.144547 
	C577.368713,120.218613 574.481018,121.147583 572.078857,122.182938 
	C568.604126,123.680573 565.534058,123.488373 562.534241,121.933945 
	C558.940552,120.071861 555.639771,120.933029 552.537964,122.571808 
	C549.366516,124.247368 546.512878,126.519638 543.495483,128.493073 
	C541.496948,129.800201 539.388000,130.605469 537.000000,129.500000 
"/>
<path fill="none" opacity="1.000000" stroke="#000000" stroke-linecap="round" stroke-linejoin="round" stroke-width="5.000000"
	d="
M482.500000,147.500000 
	C478.233215,141.826950 471.436127,141.688950 465.455505,140.175827 
	C461.858978,139.265900 457.820343,137.424713 453.880463,140.338364 
	C453.229492,140.819763 451.000000,139.166656 449.500000,138.500000 
"/>
<path fill="none" opacity="1.000000" stroke="#000000" stroke-linecap="round" stroke-linejoin="round" stroke-width="5.000000"
	d="
M660.000000,444.500000 
	C661.751221,450.202209 661.148865,456.235107 662.472412,462.006317 
	C663.110962,464.790741 663.474609,467.634064 666.000000,469.500000 
"/>
<path fill="none" opacity="1.000000" stroke="#000000" stroke-linecap="round" stroke-linejoin="round" stroke-width="5.000000"
	d="
M434.500000,656.500000 
	C426.111877,655.463440 417.791260,656.114868 409.500000,657.500000 
"/>
<path fill="none" opacity="1.000000" stroke="#000000" stroke-linecap="round" stroke-linejoin="round" stroke-width="5.000000"
	d="
M401.500000,559.500000 
	C402.263397,561.833313 402.827301,563.947205 401.638184,566.562805 
	C400.491211,569.085876 400.514374,572.504639 403.559479,573.867065 
	C406.189850,575.043884 407.398651,572.006042 408.973206,570.472473 
	C409.477478,569.981323 409.666656,569.166687 410.000000,568.500000 
"/>
<path fill="none" opacity="1.000000" stroke="#000000" stroke-linecap="round" stroke-linejoin="round" stroke-width="6.000000"
	d="
M372.500000,531.000000 
	C378.692841,536.472595 387.671661,537.714661 393.000000,544.500000 
"/>
<path fill="none" opacity="1.000000" stroke="#000000" stroke-linecap="round" stroke-linejoin="round" stroke-width="4.000000"
	d="
M336.500000,247.500000 
	C336.666656,247.666672 336.987061,247.970932 336.978363,247.980621 
	C330.193207,255.562424 328.706573,265.545959 325.176666,274.569122 
	C324.519012,276.250244 322.589569,277.402496 323.000000,279.500000 
"/>
<path fill="none" opacity="1.000000" stroke="#000000" stroke-linecap="round" stroke-linejoin="round" stroke-width="3.000000"
	d="
M691.750000,427.000000 
	C691.544006,431.403595 688.114014,434.268433 686.500000,438.000000 
"/>
<path fill="none" opacity="1.000000" stroke="#000000" stroke-linecap="round" stroke-linejoin="round" stroke-width="6.000000"
	d="
M749.500000,301.500000 
	C750.872681,306.122864 752.312622,310.700470 755.484741,314.512695 
	C757.211609,316.588013 756.295898,319.148193 756.500000,321.500000 
"/>
<path fill="none" opacity="1.000000" stroke="#000000" stroke-linecap="round" stroke-linejoin="round" stroke-width="4.000000"
	d="
M712.500000,419.000000 
	C711.706543,417.806854 710.913025,416.613708 709.874146,415.051636 
	C704.484985,418.345703 703.259460,424.985931 698.500000,428.500000 
"/>
<path fill="none" opacity="1.000000" stroke="#000000" stroke-linecap="round" stroke-linejoin="round" stroke-width="5.000000"
	d="
M720.000000,410.500000 
	C718.629761,418.820892 720.129639,421.620697 727.500000,424.500000 
"/>
<path fill="none" opacity="1.000000" stroke="#000000" stroke-linecap="round" stroke-linejoin="round" stroke-width="6.000000"
	d="
M331.000000,255.000000 
	C324.589081,253.484756 322.824097,255.063950 321.500000,263.500000 
"/>
<path fill="none" opacity="1.000000" stroke="#000000" stroke-linecap="round" stroke-linejoin="round" stroke-width="4.000000"
	d="
M703.500000,446.000000 
	C705.750977,448.270569 703.249023,451.729401 705.502075,454.001801 
	C707.037415,453.293976 708.998230,452.950867 708.500000,450.500000 
"/>
<path fill="none" opacity="1.000000" stroke="#000000" stroke-linecap="round" stroke-linejoin="round" stroke-width="2.000000"
	d="
M718.500000,416.500000 
	C717.428345,417.697845 715.315125,416.118042 714.500000,418.000000 
"/>
</svg>